<svg width="153" height="116" viewBox="0 0 153 116" fill="none" xmlns="http://www.w3.org/2000/svg">
<path d="M19.8049 69.8233C37.9772 61.2808 53.4453 48.789 68.9039 36.9115C81.0536 27.5764 93.7267 18.2773 106.864 9.92441C109.456 8.27622 113.233 5.12049 116.313 5.9403C119.365 6.75268 120.774 9.73723 123.052 11.3429C128.662 15.2972 133.496 20.3556 137.88 25.2498C142.705 30.6375 133.748 34.9215 127.948 39.4522C121.361 44.5986 115.022 49.8549 107.957 54.5363C101.242 58.9861 95.5454 64.7207 89.2847 69.6079C79.743 77.0562 70.7018 84.8608 61.1842 92.313C55.5185 96.7491 49.1959 100.561 43.7009 105.113C41.7755 106.708 39.9172 108.739 37.7592 110.13C36.0261 111.246 34.3096 107.891 33.8336 107.276C30.055 102.396 23.5528 99.4962 19.9028 94.358C17.608 91.1275 16.3407 86.9652 13.4538 84.1035C12.0756 82.7374 8.57666 79.7069 10.6359 77.2553C12.7384 74.7522 17.9513 73.082 20.9406 71.1231C23.2708 69.5961 26.1069 67.7155 28.6796 66.5471C30.5494 65.6979 32.4566 64.3503 34.1715 63.2849C38.6844 60.4811 34.1075 61.976 31.1543 63.1608" stroke="#00ADB5" stroke-opacity="0.5" stroke-linecap="round" stroke-linejoin="round"/>
<path d="M20.9683 80.1045C30.7426 84.1576 39.1099 90.6701 46.2697 97.2152C46.4511 97.381 48.2908 98.276 47.9289 98.7241C47.2303 99.5891 40.916 96.7445 40.3151 96.456" stroke="#00ADB5" stroke-opacity="0.5" stroke-linecap="round" stroke-linejoin="round"/>
<path d="M32.4316 71.3787C40.6734 72.3862 45.2284 75.5492 51.5473 78.7716C54.362 80.207 57.2576 81.4626 59.7151 83.246C60.8691 84.0834 61.6083 85.2736 62.6534 86.199C64.0858 87.4673 57.8478 85.0785 57.1119 84.8053" stroke="#00ADB5" stroke-opacity="0.5" stroke-linecap="round" stroke-linejoin="round"/>
<path d="M45.6208 64.1326C50.9772 67.7904 56.3732 71.3851 61.9407 74.8481C64.0558 76.1637 66.5046 77.3143 68.2623 78.946C71.3826 81.8424 67.2906 78.0888 65.8667 77.0593" stroke="#00ADB5" stroke-opacity="0.5" stroke-linecap="round" stroke-linejoin="round"/>
<path d="M54.5435 59.0747C58.6623 60.7408 62.9874 62.3181 66.324 64.8132C67.6927 65.8367 68.7701 67.103 70.2571 68.0266C72.0891 69.1644 73.6387 70.5575 75.4893 71.6556C78.1245 73.2192 78.4835 73.7217 75.3706 71.7374" stroke="#00ADB5" stroke-opacity="0.5" stroke-linecap="round" stroke-linejoin="round"/>
<path d="M66.1897 51.5231C70.6385 54.0461 74.7173 56.6575 78.2734 59.9449C79.8483 61.4009 81.0371 63.152 83.1518 64.1675C85.0891 65.0978 86.5138 65.2697 84.3197 63.651" stroke="#00ADB5" stroke-opacity="0.5" stroke-linecap="round" stroke-linejoin="round"/>
<path d="M77.4517 43.8949C81.3838 46.0087 85.2868 47.9033 88.2509 50.8611C89.6079 52.2151 90.6025 53.8346 92.1593 55.0494C95.3206 57.516 93.0733 56.3457 90.7687 54.6894" stroke="#00ADB5" stroke-opacity="0.5" stroke-linecap="round" stroke-linejoin="round"/>
<path d="M87.9421 36.1138C93.324 40.0764 97.6159 44.9429 103.016 48.8474C106.653 51.4765 101.515 47.1864 100.685 46.415" stroke="#00ADB5" stroke-opacity="0.5" stroke-linecap="round" stroke-linejoin="round"/>
<path d="M100.353 29.4722C105.659 27.238 111.198 24.6628 114.492 20.2862C115.4 19.0794 116.504 17.9936 116.99 16.6939C117.656 14.9089 117.469 15.6635 115.711 16.9672" stroke="#00ADB5" stroke-opacity="0.5" stroke-linecap="round" stroke-linejoin="round"/>
<path d="M107.742 34.1608C112.182 30.7084 117.135 26.9258 120.613 22.7851C122.348 20.7199 125.471 18.0863 121.173 21.2738" stroke="#00ADB5" stroke-opacity="0.5" stroke-linecap="round" stroke-linejoin="round"/>
<path d="M119.76 39.009C123.871 35.3956 127.547 32.0514 131.387 28.3243C132.627 27.1201 136.143 25.3441 132.029 26.6501" stroke="#00ADB5" stroke-opacity="0.5" stroke-linecap="round" stroke-linejoin="round"/>
<path d="M117.07 37.717C121.274 34.6436 126.041 31.0796 129.546 27.4008C130.481 26.4194 131.243 25.3575 132.114 24.3491C133.574 22.6598 133.58 23.1744 131.671 23.5448" stroke="#00ADB5" stroke-opacity="0.5" stroke-linecap="round" stroke-linejoin="round"/>
<path d="M30.581 84.2858C50.5615 75.9019 57.6364 58.428 74.5447 47.1006C76.6015 45.7226 78.3209 44.2544 80.6426 43.2C82.195 42.495 84.0552 42.0324 85.4961 41.1913C86.375 40.6783 93.7691 35.7304 88.7947 37.9895" stroke="#00ADB5" stroke-opacity="0.5" stroke-linecap="round" stroke-linejoin="round"/>
<path d="M22.3136 80.7504C24.7503 78.4129 26.9043 76.4045 29.8363 74.5828C30.3172 74.2841 31.0116 74.165 31.4248 73.7916C32.2435 73.0519 33.479 71.9661 33.8774 71.0857C35.4465 67.6182 40.7524 67.6327 43.8491 65.6354C46.7949 63.7354 49.6419 61.827 52.6381 59.9401C55.9391 57.8613 57.5664 56.1802 60.3331 53.6803C62.8746 51.384 65.3533 49.0715 68.0117 46.8694C70.1864 45.0678 73.4578 43.2844 74.9838 41.1194C76.7061 38.676 80.6585 35.6576 83.8292 35.7197C84.9183 35.7411 92.5402 38.6271 87.5508 36.7947" stroke="#00ADB5" stroke-opacity="0.5" stroke-linecap="round" stroke-linejoin="round"/>
<path d="M38.4687 86.9876C53.6782 79.2867 63.4979 65.1107 74.5949 53.9901C78.6823 49.8941 84.1301 46.8663 88.3755 42.8159C90.1914 41.0834 93.9537 39.0379 89.8416 39.5246" stroke="#00ADB5" stroke-opacity="0.5" stroke-linecap="round" stroke-linejoin="round"/>
<path d="M43.073 90.1759C56.9816 82.2844 66.9806 69.3803 77.7692 58.8334C82.6774 54.0351 87.4482 49.1631 92.4044 44.3941C94.6641 42.2198 98.2999 40.6125 93.5738 43.1089" stroke="#00ADB5" stroke-opacity="0.5" stroke-linecap="round" stroke-linejoin="round"/>
<path d="M47.2637 96.3167C56.2707 89.0385 63.7835 81.4318 71.4532 73.3208C76.1169 68.3889 80.3102 62.9627 85.6156 58.398C88.6597 55.779 91.1326 52.8345 93.9453 50.1043C95.0784 49.0045 95.9256 47.776 97.0851 46.6813C99.697 44.2156 97.8122 46.3928 96.0408 47.7701" stroke="#00ADB5" stroke-opacity="0.5" stroke-linecap="round" stroke-linejoin="round"/>
<path d="M48.7854 98.8938C53.2696 95.2576 59.6169 91.5303 62.8878 87.0986C64.0753 85.4896 67.0014 81.5984 68.8275 80.4907C71.2416 79.0265 72.6708 76.3265 74.5311 74.5209C76.4683 72.6405 78.364 70.805 80.4345 68.9909C82.376 67.2898 83.2988 64.5825 85.6232 63.0454C88.2125 61.333 89.6859 58.9663 91.8311 57.028C93.6878 55.3504 97.042 53.4518 99.2464 52.0823C100.468 51.3234 101.379 50.3734 102.73 49.7599C105.468 48.5165 103.709 49.193 101.334 49.3884" stroke="#00ADB5" stroke-opacity="0.5" stroke-linecap="round" stroke-linejoin="round"/>
<path d="M99.8599 30.7015C103.104 31.036 107.158 31.0612 110 32.1852C111.835 32.9107 113.414 33.6683 110.074 32.3473" stroke="#00ADB5" stroke-opacity="0.5" stroke-linecap="round" stroke-linejoin="round"/>
<path d="M103.957 25.8248C108.586 26.2928 111.799 27.0386 115.404 28.6422C117.761 29.6907 117.404 29.3673 114.934 28.3806" stroke="#00ADB5" stroke-opacity="0.5" stroke-linecap="round" stroke-linejoin="round"/>
<path d="M110.37 20.6493C114.207 22.0429 117.887 23.7029 121.896 24.8414C124.255 25.511 122.957 25.591 121.139 25.0599" stroke="#00ADB5" stroke-opacity="0.5" stroke-linecap="round" stroke-linejoin="round"/>
<path d="M114.17 16.6615C118.256 17.7561 122.006 18.8818 125.694 20.4213C127.376 21.1234 125.727 21.3656 124.458 20.7873" stroke="#00ADB5" stroke-opacity="0.5" stroke-linecap="round" stroke-linejoin="round"/>
<path d="M102.191 28.8886C105.878 25.4138 109.551 22.1009 112.957 18.581C113.924 17.5809 119.752 11.9635 117.177 14.7928" stroke="#00ADB5" stroke-opacity="0.5" stroke-linecap="round" stroke-linejoin="round"/>
<path d="M104.849 33.9664C109.5 30.4829 116.159 25.7873 118.151 21.1381C118.737 19.7698 119.793 18.3497 121.198 17.2964C122.622 16.2281 124.035 15.6595 121.883 17.4322" stroke="#00ADB5" stroke-opacity="0.5" stroke-linecap="round" stroke-linejoin="round"/>
<path d="M101.468 34.2446C106.526 29.8296 110.749 26.7699 113.969 21.6683C114.805 20.3434 115.709 19.2217 116.933 18.1157C118.23 16.9437 120.02 15.7817 117.535 17.898" stroke="#00ADB5" stroke-opacity="0.5" stroke-linecap="round" stroke-linejoin="round"/>
<path d="M117.969 34.2922C119.9 35.1192 121.847 35.8679 123.884 36.5079C124.725 36.7722 123.72 36.1909 123.357 36.1189" stroke="#00ADB5" stroke-opacity="0.5" stroke-linecap="round" stroke-linejoin="round"/>
<path d="M122.749 28.6025C122.876 28.6828 130.262 33.3983 128.988 32.3048" stroke="#00ADB5" stroke-opacity="0.5" stroke-linecap="round" stroke-linejoin="round"/>
<path d="M127.885 26.0181C129.493 27.2109 134.445 30.6717 132.678 29.6231" stroke="#00ADB5" stroke-opacity="0.5" stroke-linecap="round" stroke-linejoin="round"/>
<path d="M115.245 36.7862C118.544 34.2148 125.711 29.0493 127.795 25.4311C128.616 24.0053 131.755 21.9396 128.771 24.1077" stroke="#00ADB5" stroke-opacity="0.5" stroke-linecap="round" stroke-linejoin="round"/>
<path d="M115.528 37.4113C115.787 37.5622 120.81 41.8712 122.363 39.3352C123.155 38.0408 124.187 36.3548 125.806 35.5089C128.647 34.0248 129.66 30.2392 132.539 28.9319C135.805 27.4487 135.78 25.5776 132.98 25.2265C131.879 25.0886 133.027 23.1859 131.827 23.4598C130.728 23.7105 130.2 23.4536 128.966 23.7672" stroke="#00ADB5" stroke-opacity="0.5" stroke-linecap="round" stroke-linejoin="round"/>
<path d="M99.5757 30.0766C101.116 32.8684 101.334 33.9187 104.321 34.8205C105.127 35.0639 106.306 34.4691 106.917 34.661C108.125 35.0407 110.656 34.7681 111.745 33.7113C113.934 31.5865 114.813 30.2749 117.922 28.7834C119.883 27.8425 121.618 25.9462 122.678 24.4168C123.843 22.7358 125.711 21.3582 126.929 19.6653C127.447 18.9445 124.258 17.5946 124.39 16.4333C124.427 16.104 120.355 16.5503 119.716 16.3495C118.941 16.1061 118.63 15.6757 118.334 15.0219C117.9 14.0671 116.703 15.447 115.143 15.7168" stroke="#00ADB5" stroke-opacity="0.5" stroke-linecap="round" stroke-linejoin="round"/>
<path d="M26.4089 75.8738C30.8397 76.7702 34.6214 78.1424 38.5068 79.6946C41.88 81.0422 45.8377 81.5183 49.1955 82.8146C51.586 83.7374 53.8571 86.2012 55.4931 87.8031C56.0382 88.3369 56.4294 88.8497 56.7809 89.4807C57.5872 90.9285 57.0479 87.2706 56.9971 86.8687" stroke="#00ADB5" stroke-opacity="0.5" stroke-linecap="round" stroke-linejoin="round"/>
<path d="M75.0515 42.4709C76.1839 43.4109 80.5474 48.8118 80.1484 44.4296" stroke="#00ADB5" stroke-opacity="0.5" stroke-linecap="round" stroke-linejoin="round"/>
</svg>
