<svg width="75" height="72" viewBox="0 0 75 72" fill="none" xmlns="http://www.w3.org/2000/svg">
<path d="M10.2413 27.3972C18.2011 23.2807 26.3169 17.8979 33.4336 12.394C37.2417 9.44886 41.3399 6.92351 45.0251 3.87497C45.5445 3.44535 46.8234 1.41929 47.5947 2.08304C48.8121 3.1307 49.992 4.95003 50.7364 6.36583C52.8989 10.4786 55.8827 14.6058 58.9394 18.0694C61.3641 20.8168 63.3329 23.1372 65.1762 26.3298C66.1844 28.0761 68.6879 30.4591 68.5084 32.4004C68.0079 37.8129 62.9504 42.8259 59.4793 46.3669C54.3787 51.5703 49.3816 56.7996 43.3164 60.7989C39.5542 63.2796 35.3125 64.5896 31.4647 66.8112C27.9203 68.8575 28.2113 68.583 24.8358 65.6093C21.5111 62.6803 19.4539 59.5023 17.1983 55.5955C16.0241 53.5618 13.9249 51.8056 12.292 50.1254C11.0552 48.8527 10.6058 46.68 9.93937 45.0786C9.24038 43.399 9.30165 38.5823 7.76759 37.5789C6.26399 36.5955 4.51948 34.4336 4.94152 32.4971C5.28612 30.9159 18.4539 21.6473 7.45661 31.9939" stroke="#00ADB5" stroke-opacity="0.5" stroke-linecap="round" stroke-linejoin="round"/>
<path d="M6.05118 34.9409C9.04701 36.3957 11.9623 38.4849 14.9284 39.8502C15.9142 40.304 17.5965 40.2189 18.3917 40.8397C20.5443 42.5207 26.7613 41.4999 29.4014 41.7423C32.3816 42.0159 40.5488 46.1039 41.6438 41.0792C43.7023 31.6338 46.0061 22.2315 48.0563 12.8243C48.4437 11.0469 47.9205 9.29226 48.2742 7.66934C49.3509 2.72889 44.6108 5.84649 43.0081 6.77183" stroke="#00ADB5" stroke-opacity="0.5" stroke-linecap="round" stroke-linejoin="round"/>
</svg>
