<svg width="79" height="235" viewBox="0 0 79 235" fill="none" xmlns="http://www.w3.org/2000/svg">
<path d="M75.7996 3.19806C50.1842 3.91647 54.9042 2.94458 34.18 22.898C29.4467 27.4551 22.2899 32.9978 20.6681 41.0942C18.2746 53.042 32.9254 89.1888 42.5173 75.8854C48.7162 67.2878 47.5222 52.5204 38.0922 48.6148C22.6278 42.2098 10.1943 61.1468 5.38673 77.5103C0.0938917 95.5256 4.53896 115.234 17.0131 127.263C22.7117 132.758 31.9038 130.27 26.8617 118.599C16.491 94.596 4.4965 123.714 6.12045 139.661C9.04549 168.385 33.7166 206.119 56.7989 200.135C64.0158 198.264 61.6569 194.09 58.6283 191.002C55.5551 187.869 47.8278 176.427 49.9024 180.772C53.5293 188.367 58.1306 191.423 63.2707 195.883C69.9005 201.635 55.6799 214.205 51.5603 218.692C49.3977 221.047 46.2554 226.322 45.6705 230.164C44.5154 237.748 52.8536 217.931 54.3459 210.482" stroke="#00ADB5" stroke-opacity="0.2" stroke-width="5" stroke-linecap="round" stroke-linejoin="round"/>
</svg>
